<svg width="317" height="318" viewBox="0 0 317 318" fill="none" xmlns="http://www.w3.org/2000/svg">
<path d="M133.084 167.754C133.084 162.398 135.896 159.813 138.998 153.64C139.79 152.065 145.632 135.655 145.632 135.655H172.681C172.681 135.655 177.377 151.342 178.267 152.619C182.001 157.993 185.229 161.907 185.229 167.754C185.229 180.041 173.555 190 159.156 190C144.756 190 133.084 180.04 133.084 167.754Z" stroke="white" stroke-width="3.1411" stroke-miterlimit="10" stroke-linecap="round" stroke-linejoin="round"/>
<path d="M159.156 136.206V152.255Z" fill="white"/>
<path d="M159.156 136.206V152.255" stroke="white" stroke-width="3.1411" stroke-miterlimit="10" stroke-linecap="round" stroke-linejoin="round"/>
<path d="M149.751 152.255H168.562Z" fill="white"/>
<path d="M149.751 152.255H168.562" stroke="white" stroke-width="3.1411" stroke-miterlimit="10" stroke-linecap="round" stroke-linejoin="round"/>
<path d="M146.301 120.654C146.301 116.299 152.053 112.768 159.148 112.768C166.244 112.768 171.996 116.299 171.996 120.654H146.301Z" fill="white" stroke="white" stroke-width="2.66365" stroke-miterlimit="10" stroke-linecap="round" stroke-linejoin="round"/>
<path d="M171.775 125.776L146.537 130.44Z" fill="white"/>
<path d="M171.775 125.776L146.537 130.44" stroke="white" stroke-width="3.08613" stroke-miterlimit="10" stroke-linecap="round" stroke-linejoin="round"/>
<path d="M155.69 124.311L146.584 125.897Z" fill="white"/>
<path d="M155.69 124.311L146.584 125.897" stroke="white" stroke-width="3.1411" stroke-miterlimit="10" stroke-linecap="round" stroke-linejoin="round"/>
<path d="M171.728 130.32L162.622 131.906Z" fill="white"/>
<path d="M171.728 130.32L162.622 131.906" stroke="white" stroke-width="3.1411" stroke-miterlimit="10" stroke-linecap="round" stroke-linejoin="round"/>
<g filter="url(#filter0_dd_166_38)">
<ellipse cx="158.5" cy="163.948" rx="30.5" ry="26.0235" fill="#D9D9D9" fill-opacity="0.01"/>
</g>
<defs>
<filter id="filter0_dd_166_38" x="0.293037" y="10.2181" width="316.413" height="307.46" filterUnits="userSpaceOnUse" color-interpolation-filters="sRGB">
<feFlood flood-opacity="0" result="BackgroundImageFix"/>
<feColorMatrix in="SourceAlpha" type="matrix" values="0 0 0 0 0 0 0 0 0 0 0 0 0 0 0 0 0 0 127 0" result="hardAlpha"/>
<feOffset/>
<feGaussianBlur stdDeviation="9.12191"/>
<feColorMatrix type="matrix" values="0 0 0 0 1 0 0 0 0 1 0 0 0 0 1 0 0 0 1 0"/>
<feBlend mode="normal" in2="BackgroundImageFix" result="effect1_dropShadow_166_38"/>
<feColorMatrix in="SourceAlpha" type="matrix" values="0 0 0 0 0 0 0 0 0 0 0 0 0 0 0 0 0 0 127 0" result="hardAlpha"/>
<feOffset/>
<feGaussianBlur stdDeviation="63.8534"/>
<feColorMatrix type="matrix" values="0 0 0 0 1 0 0 0 0 1 0 0 0 0 1 0 0 0 1 0"/>
<feBlend mode="normal" in2="effect1_dropShadow_166_38" result="effect2_dropShadow_166_38"/>
<feBlend mode="normal" in="SourceGraphic" in2="effect2_dropShadow_166_38" result="shape"/>
</filter>
</defs>
</svg>
