<svg width="261" height="261" viewBox="0 0 261 261" fill="none" xmlns="http://www.w3.org/2000/svg">
<g filter="url(#filter0_d_149_83)">
<circle cx="130.5" cy="130.5" r="104.5" fill="url(#paint0_radial_149_83)"/>
</g>
<path d="M64.7618 59.7362C85.4973 31.1016 116.463 35.1883 129.354 40.811C153.217 32.5827 145.4 34.6398 175.433 46.9823C199.46 56.8563 205.467 79.3471 205.467 89.3583C242.083 121.037 219.455 105.815 226.449 130.911C232.044 150.989 225.489 159.025 221.512 160.533C225.626 179.459 213.695 176.167 203.821 190.156C193.947 204.144 206.289 167.939 200.118 174.933C193.947 181.927 193.535 178.224 182.427 166.705C171.319 155.185 208.346 142.02 185.719 145.722C163.091 149.425 189.01 124.329 177.079 127.62C167.534 130.253 165.97 126.523 166.382 124.329C165.065 117.417 160.896 120.077 158.976 122.272C158.976 124.905 152.942 131.871 149.925 135.026C154.533 139.633 154.039 146.545 153.217 149.425C128.861 144.159 140.874 156.282 149.925 163.002C162.432 164.977 159.251 171.23 156.096 174.11C171.566 177.072 164.462 182.201 158.976 184.396C177.079 184.067 166.519 192.487 158.976 196.738C168.521 208.587 154.999 211.275 147.045 211.138C130.589 205.213 140.188 219.092 147.045 226.772C135.855 234.013 120.715 225.949 114.543 221.012C102.695 220.024 102.749 214.018 104.258 211.138C102.612 200.03 82.4528 202.498 82.4528 204.967C81.7945 209.245 77.79 210.864 75.8701 211.138C53.1599 199.289 53.5164 181.516 56.5335 174.11C34.4815 157.983 32.8084 147.642 34.7284 144.488C27.4874 91.1685 51.7336 65.7703 64.7618 59.7362Z" fill="#EAECEB"/>
<path d="M118.354 189.038C110.537 182.866 122.468 180.809 134.811 182.866C141.805 176.695 136.045 162.296 138.513 161.884C140.982 161.473 140.159 172.17 145.507 169.701C150.856 167.233 151.679 175.461 145.507 179.987C139.336 184.512 150.856 191.095 143.039 192.329C135.222 193.563 143.039 200.557 136.045 209.197C129.051 217.837 126.171 207.14 130.696 196.443C135.222 185.746 126.171 195.209 118.354 189.038Z" fill="#D9E2E2"/>
<path d="M156.616 110.457C142.216 105.52 149.21 105.109 155.381 101.406C170.604 101.406 154.147 85.772 166.078 81.6578C178.009 77.5436 166.901 103.051 179.244 101.406C191.586 99.7601 174.718 88.2405 184.592 84.5377C192.491 81.5755 190.9 96.4688 189.118 104.286C224.5 106.253 214.214 117.04 222.031 128.971C229.848 140.902 215.448 136.788 202.283 137.199C191.751 137.528 193.506 142.548 195.7 145.016C158.673 149.542 194.055 130.616 179.244 128.971C164.433 127.325 174.718 120.742 172.661 112.925C170.604 105.109 171.427 119.508 159.496 117.04C147.564 114.571 171.015 115.394 156.616 110.457Z" fill="#D9E2E2"/>
<path d="M136.456 139.256C149.21 145.427 136.868 134.731 136.456 126.914C159.907 128.559 146.742 113.748 145.096 117.451C143.779 120.413 138.788 119.782 136.456 119.097C136.182 117.451 134.893 113.831 131.931 112.514C128.228 110.868 131.108 117.862 125.759 119.92C120.411 121.977 115.885 131.439 123.702 132.262C129.956 132.92 134.81 137.199 136.456 139.256Z" fill="#D9E2E2"/>
<path d="M37.3045 141.313C42.2416 145.839 40.1845 147.073 40.5959 149.953C38.8131 152.833 39.6085 159.004 57.0526 160.65C74.4967 162.296 75.0178 175.324 73.0978 181.632C105.6 180.809 73.0978 191.918 85.8518 194.386C98.6057 196.855 99.0171 191.918 103.131 184.923C107.245 177.929 94.0801 177.107 99.0171 168.467C103.954 159.827 103.131 174.638 112.182 173.815C119.423 173.157 124.799 168.055 126.582 165.587C119.012 144.522 99.5657 151.599 90.7888 157.77C80.9148 159.745 80.6405 154.753 81.7376 152.01C84.3707 136.541 77.0749 131.302 73.0978 130.616C79.0223 119.755 68.7094 114.845 62.8124 113.748C60.7553 91.5317 98.6057 100.994 94.0801 106.343C90.4597 110.622 90.3774 114.983 90.7888 116.628C93.8059 116.628 98.688 118.603 94.0801 126.502C88.3203 136.376 93.2573 132.673 94.0801 135.965C101.321 140.244 103.131 134.182 103.131 130.616C101.76 128.696 99.84 123.211 103.131 116.628C106.423 110.046 106.423 99.623 106.011 95.2345C110.4 88.5147 120.658 76.4739 126.582 82.0692C133.988 89.0633 147.564 97.703 143.45 88.2404C139.336 78.7779 143.45 77.5436 143.45 65.2011C143.45 52.8586 132.753 71.7837 131.931 58.6184C131.272 48.0861 125.348 48.7444 122.468 50.3901C119.999 52.7214 112.676 55.9853 103.131 50.3901C93.5864 44.7948 93.1202 57.9327 94.0801 65.2011C94.0801 76.0625 91.8859 77.955 90.7888 77.5436C85.1935 79.5184 87.086 83.3035 88.7317 84.9491C85.7695 92.8484 80.6405 90.4347 78.4463 88.2404C82.725 83.6326 76.6635 77.5436 73.0978 75.075C76.7183 60.9223 71.5893 60.1269 68.5723 61.4983C24.5506 84.5376 32.3675 136.788 37.3045 141.313Z" fill="#D9E2E2"/>
<path d="M207.22 166.41C201.46 159.416 201.871 155.713 209.277 150.365C214.543 135.883 221.894 145.702 224.911 152.422C223.676 152.696 220.797 155.219 219.151 163.119C217.505 171.018 214.077 173.541 212.568 173.815C211.471 175.187 208.865 175.626 207.22 166.41Z" fill="#D9E2E2"/>
<defs>
<filter id="filter0_d_149_83" x="0" y="0" width="261" height="261" filterUnits="userSpaceOnUse" color-interpolation-filters="sRGB">
<feFlood flood-opacity="0" result="BackgroundImageFix"/>
<feColorMatrix in="SourceAlpha" type="matrix" values="0 0 0 0 0 0 0 0 0 0 0 0 0 0 0 0 0 0 127 0" result="hardAlpha"/>
<feMorphology radius="2" operator="dilate" in="SourceAlpha" result="effect1_dropShadow_149_83"/>
<feOffset/>
<feGaussianBlur stdDeviation="12"/>
<feComposite in2="hardAlpha" operator="out"/>
<feColorMatrix type="matrix" values="0 0 0 0 1 0 0 0 0 1 0 0 0 0 1 0 0 0 1 0"/>
<feBlend mode="normal" in2="BackgroundImageFix" result="effect1_dropShadow_149_83"/>
<feBlend mode="normal" in="SourceGraphic" in2="effect1_dropShadow_149_83" result="shape"/>
</filter>
<radialGradient id="paint0_radial_149_83" cx="0" cy="0" r="1" gradientUnits="userSpaceOnUse" gradientTransform="translate(184.883 199.811) rotate(-116.565) scale(178.828)">
<stop stop-color="white"/>
<stop offset="1" stop-color="#F7F7F7"/>
</radialGradient>
</defs>
</svg>
